max v2;
#N vpatcher 195 116 646 534;
#P button 348 283 15 0;
#P window setfont Monaco 9.;
#P window linecount 1;
#P newex 293 370 124 262153 bgcolor 255 200 100;
#P newex 217 319 88 262153 prepend press;
#P newex 217 300 118 262153 route /shado/press;
#P newex 217 281 100 262153 udpreceive 8000;
#P message 212 239 154 262153 placeholder shado-simple;
#P newex 41 249 76 262153 prepend run;
#P message 119 249 40 262153 clear;
#P newex 41 215 40 262153 t s b;
#P user ubumenu 154 139 100 262153 0 1 1 0;
#X add Simple;
#X add Simple2;
#X add RaiseLower;
#X add Migrate;
#X add Tiles;
#X add Animate;
#X add Counter;
#X add Buttons;
#X prefix_set 0 0 <none> 0;
#P button 11 162 15 0;
#P newex 11 345 406 262153 mxj net.loadbang.jython.mxj.ScriptEngine @placeholder shado-simple;
#P newex 11 130 58 262153 metro 10;
#P toggle 11 89 15 0;
#P window linecount 2;
#P comment 34 90 100 262153 animations use a 10msec metro;
#P window linecount 1;
#P comment 212 225 130 262153 reload everything:;
#P window linecount 3;
#P comment 264 115 100 262153 all these demo programs assume an 8 x 8 monome;
#P window linecount 4;
#P comment 12 30 260 262153 This is the "simple" demo patcher for shado back-ported for Max 4. Nick Rothwell \, nick@cassiel.com / nick@loadbang.net;
#P user panel 7 85 134 99;
#X brgb 235 180 80;
#X frgb 0 0 0;
#X border 1;
#X rounded 0;
#X shadow 0;
#X done;
#P window linecount 2;
#P comment 154 112 100 262153 Select a script to load;
#P user panel 151 108 220 49;
#X brgb 235 180 80;
#X frgb 0 0 0;
#X border 1;
#X rounded 0;
#X shadow 0;
#X done;
#P user panel 7 25 352 56;
#X brgb 255 255 255;
#X frgb 0 0 0;
#X border 2;
#X rounded 0;
#X shadow 0;
#X done;
#P connect 8 0 9 0;
#P connect 9 0 11 0;
#P fasten 19 0 10 0 222 340 16 340;
#P connect 16 0 10 0;
#P connect 15 0 10 0;
#P connect 14 0 10 0;
#P connect 11 0 10 0;
#P fasten 12 1 13 0 204 202 46 202;
#P connect 13 0 15 0;
#P fasten 13 1 14 0 76 240 124 240;
#P connect 17 0 18 0;
#P connect 18 0 19 0;
#P connect 19 0 21 0;
#P pop;
